<?xml version="1.0" encoding="UTF-8"?>
<svg id="Layer_1" data-name="Layer 1" xmlns="http://www.w3.org/2000/svg" viewBox="0 0 1024 1024">
  <defs>
    <style>
      .cls-1 {
        fill: #000;
      }

      .cls-1, .cls-2, .cls-3 {
        stroke-width: 0px;
      }

      .cls-2 {
        fill: #fb9b00;
      }

      .cls-3 {
        fill: #fff;
      }
    </style>
  </defs>
  <path class="cls-3" d="M993.64,18.7H15.76v977.89h977.88V18.7Z"/>
  <path class="cls-1" d="M217.49,373.84v-42.68h25.38v-139.53h-25.38v-32.05l23.33-10.63h62.06v182.21h24.67v42.68h-110.06Z"/>
  <path class="cls-1" d="M190.06,712.88c.58-10.29,3.16-20.37,7.66-29.66,4.45-9.29,10.73-17.6,18.39-24.46,7.7-6.87,16.7-12.14,26.4-15.53,9.75-3.39,20.08-4.83,30.36-4.23,49.51,0,76.93,30.51,76.93,71.31,0,61.2-84.81,74.73-97.37,115.02h54.72v-23.65h45.06v66.33h-163.53v-39.08c28.32-75.93,107.16-84.33,107.16-118.61.04-3.33-.58-6.62-1.91-9.68-1.29-3.06-3.25-5.81-5.7-8.06-2.45-2.25-5.34-3.96-8.5-5.01-3.12-1.05-6.5-1.42-9.79-1.07-4.14.17-8.24,1.17-12.02,2.93-3.74,1.76-7.12,4.25-9.93,7.32-2.81,3.08-4.99,6.67-6.41,10.59-1.38,3.92-2,8.08-1.78,12.23l-49.73-6.68Z"/>
  <path class="cls-1" d="M676.33,816.06l51.42-15.77c2.58,15.08,10.28,26.4,26.94,26.4,3.47.24,6.99-.28,10.28-1.54,3.25-1.26,6.23-3.2,8.68-5.71,2.45-2.52,4.32-5.53,5.48-8.83,1.16-3.31,1.6-6.83,1.25-10.32,0-19.88-14.2-29.83-37.18-29.83h-8.06v-34.8h8.42c23.64,0,34.28-10.63,34.28-27.94.18-3.14-.27-6.28-1.38-9.22-1.11-2.94-2.85-5.61-5.08-7.84-2.23-2.22-4.9-3.94-7.84-5.05-2.94-1.11-6.05-1.58-9.22-1.38-13.53,0-22.44,9.6-25.02,26.57l-48.48-13.89c3.61-17.11,13.36-32.32,27.34-42.81,13.98-10.49,31.3-15.56,48.75-14.27,49.37,0,74.75,26.4,74.75,66.17.49,10.51-2.63,20.88-8.86,29.34-6.28,8.47-15.23,14.51-25.42,17.11,11.58,2.36,21.95,8.89,29.03,18.37,7.12,9.48,10.51,21.24,9.53,33.05,0,40.45-28.63,69.59-82.1,69.59-43.36-.69-69.59-22.45-77.51-57.42Z"/>
  <path class="cls-2" d="M1007.35,20.7h-507.01v491.26h507.01V20.7Z"/>
  <path class="cls-1" d="M0,0v1024h1024V0H0ZM975.65,488h-439.65V47.99h439.65v440.01ZM488,47.99v440.01H47.99V47.99h440.01ZM47.99,536h440.01v439.67H47.99v-439.67ZM536,975.66v-439.67h439.65v439.67h-439.65Z"/>
</svg>